<?xml version="1.0" encoding="UTF-8"?>
<svg xmlns="http://www.w3.org/2000/svg" version="1.1" viewBox="0 0 1322.2 761.2">
  <!-- Generator: Adobe Illustrator 30.1.0, SVG Export Plug-In . SVG Version: 2.1.1 Build 136)  -->
  <defs>
    <style>
      .st0 {
        fill: #cbb36c;
      }

      .st1 {
        fill: #dbfffd;
      }

      .st2 {
        fill: #ccb46c;
      }
    </style>
  </defs>
  <g id="Layer_2">
    <g>
      <path class="st2" d="M481.7,684.1h-68.3l-29.3-76.7h-19.4v76.7h-61.6v-200.7h104.8c23.1,0,41.1,5.4,53.9,16.2,12.8,10.8,19.2,25.1,19.2,42.9s-2.4,21.8-7.1,30.7c-4.7,8.9-14.2,16.7-28.5,23.4l36.3,87.5ZM364.7,564.5h26.3c7.7,0,14-1.6,18.7-4.9,4.7-3.2,7.1-8,7.1-14.3,0-12.8-7.9-19.3-23.7-19.3h-28.4v38.4Z"/>
      <path class="st2" d="M572.4,483.5v200.7h-61.6v-200.7h61.6Z"/>
      <path class="st2" d="M689.9,531.6v152.6h-58.4v-152.6h-41.6v-48.1h141.6v48.1h-41.6Z"/>
      <path class="st2" d="M835.7,687.2c-28.2,0-51.2-9.4-69-28.1-17.8-18.7-26.7-43.8-26.7-75.1s8.5-54.8,25.5-74.3c17-19.6,40.6-29.3,70.8-29.3s50.7,9.2,68.3,27.6c17.6,18.4,26.4,43,26.4,73.8s-8.9,57.4-26.6,76.6c-17.7,19.2-40.6,28.8-68.7,28.8ZM835.4,641.7c10.4,0,17.9-4.5,22.4-13.6,4.6-9.1,6.8-25.7,6.8-49.8,0-34.9-9.4-52.3-28.1-52.3s-30.3,19.9-30.3,59.7,9.7,56,29.1,56Z"/>
      <path class="st2" d="M1128.5,684.1h-50.1l-55-88.7c-7.1-11.4-14.2-25.2-21.3-41.4,3.2,12.9,4.9,23.9,4.9,32.9v97.2h-50v-200.7h58.2l46.8,73.5c9.3,14.6,16.4,27.4,21.2,38.5-3.1-17.1-4.7-34.7-4.7-52.6v-59.4h50.1v200.7Z"/>
    </g>
    <g>
      <path class="st1" d="M218.6,694.5v41.3h-11.8v-29.6l-7.6,29.6h-8.1l-7.9-29.6v29.6h-9.5v-41.3h16.6l6,22,5.7-22h16.6Z"/>
      <path class="st1" d="M248.6,735.8l-2.3-8.1h-11.1l-2.5,8.1h-10.3l12.8-41.3h13.4l13,41.3h-12.9ZM237.3,718.7h6.7l-3.3-12-3.3,12Z"/>
      <path class="st1" d="M302.6,735.8h-13.9l-7.1-15.6-4.3,6.1v9.5h-12v-41.3h12v17.1l11.4-17.1h11.4l-10.4,15.1,13,26.2Z"/>
      <path class="st1" d="M318.7,694.5v41.3h-12.7v-41.3h12.7Z"/>
      <path class="st1" d="M361.2,735.8h-10.3l-11.3-18.3c-1.5-2.3-2.9-5.2-4.4-8.5.7,2.7,1,4.9,1,6.8v20h-10.3v-41.3h12l9.6,15.1c1.9,3,3.4,5.7,4.4,7.9-.6-3.5-1-7.1-1-10.8v-12.2h10.3v41.3Z"/>
      <path class="st1" d="M404.2,712.7v23.2h-6.2c-.5-1.7-1.1-3.2-1.7-4.3-2.6,3.3-6.4,5-11.4,5s-9.7-1.9-13.1-5.6-5.1-8.8-5.1-15.1,1.7-11.4,5-15.6c3.3-4.2,8.3-6.3,14.8-6.3s8.9,1.3,11.9,3.8,5,6.1,5.8,10.7l-12.3,1.2c-.6-4.3-2.5-6.4-5.7-6.4s-6.2,4-6.2,11.9.7,7.9,2,9.5,2.9,2.3,4.8,2.3,2.8-.5,3.9-1.4,1.6-2.2,1.7-3.8h-6.8v-8.8h18.6Z"/>
      <path class="st1" d="M478.1,694.5l-11,41.3h-10.7l-5.8-22.8-5.5,22.8h-11.1l-11-41.3h11.9l5.8,23.8,5.6-23.8h10l6.1,23.8,5.8-23.8h9.7Z"/>
      <path class="st1" d="M502.9,735.8l-2.3-8.1h-11.1l-2.5,8.1h-10.3l12.8-41.3h13.4l13,41.3h-12.9ZM491.7,718.7h6.7l-3.3-12-3.3,12Z"/>
      <path class="st1" d="M553,694.5l-12.8,41.3h-12.9l-13.4-41.3h13.4l6.5,22.5c.4,1.3.8,2.6,1.2,3.9l7.6-26.5h10.4Z"/>
      <path class="st1" d="M587.9,726v9.9h-31.1v-41.3h31.1v9.5h-18.7v6h15.1v9.2h-15.1v6.8h18.7Z"/>
      <path class="st1" d="M588.6,723.9l11.8-2.1c1,3.3,3.5,5,7.6,5s4.8-.8,4.8-2.5-.4-1.6-1.1-2.1-2.1-.9-4-1.3c-7.2-1.4-11.9-3.2-14-5.4s-3.1-4.9-3.1-7.9,1.5-7.1,4.4-9.7,7.2-3.9,12.8-3.9c8.4,0,14,3.4,16.7,10.1l-10.5,3.2c-1.1-2.8-3.3-4.1-6.6-4.1s-4.1.9-4.1,2.6.3,1.4.9,1.8,1.8.8,3.6,1.2c4.9,1,8.5,2,10.5,2.8,2.1.8,3.8,2.2,5.2,4.1,1.4,1.9,2.1,4.2,2.1,6.9,0,4.2-1.7,7.6-5.1,10.2s-7.8,3.9-13.4,3.9c-10.1,0-16.3-4.2-18.7-12.6Z"/>
      <path class="st1" d="M641.2,724.8v10.1l-6.6,11.5h-4.8l4.8-10.6h-4.9v-11h11.5Z"/>
      <path class="st1" d="M663.1,735.8v-41.3h21c4.4,0,7.5,1.1,9.5,3.3s3,4.7,3,7.5-.6,3.9-1.7,5.6-2.9,2.8-5.2,3.4c5.3,1.3,8,4.5,8,9.6s-.9,5.8-2.8,8.2-5.9,3.6-12.1,3.6h-19.7ZM674.8,710.3h5.9c1.5,0,2.5-.4,3.1-1.1s.9-1.5.9-2.4c0-2.3-1.4-3.5-4.2-3.5h-5.7v7ZM674.8,726.6h6.2c1.5,0,2.7-.4,3.4-1.1s1.1-1.6,1.1-2.6-.3-1.8-1-2.6-2-1.2-3.8-1.2h-5.8v7.5Z"/>
      <path class="st1" d="M736.5,694.5v27.4c0,5.2-1.5,8.9-4.6,11.2s-7.1,3.4-12,3.4-9.4-1.1-12.6-3.3c-3.2-2.2-4.7-5.7-4.7-10.7v-28h12.9v26.6c0,2,.4,3.4,1.3,4.3s2.2,1.4,4,1.4,2.8-.3,3.8-1,1.6-1.4,1.8-2.2c.2-.8.3-2.4.3-4.8v-24.2h10Z"/>
      <path class="st1" d="M756,694.5v41.3h-12.7v-41.3h12.7Z"/>
      <path class="st1" d="M792.2,725.7v10.1h-29v-41.3h12.7v31.2h16.3Z"/>
      <path class="st1" d="M796.6,735.8v-41.3h16c6.9,0,12.1,2.1,15.6,6.2,3.5,4.1,5.2,8.9,5.2,14.3s-1.9,11.2-5.6,15.1c-3.7,3.9-8.5,5.8-14.4,5.8h-16.8ZM809.3,726.3h3.3c2.1,0,3.9-1,5.3-3.1s2.2-4.8,2.2-8.3-.6-5.6-1.9-7.8c-1.3-2.2-3.1-3.3-5.6-3.3h-3.3v22.4Z"/>
      <path class="st1" d="M851.4,694.5v41.3h-12.7v-41.3h12.7Z"/>
      <path class="st1" d="M893.9,735.8h-10.3l-11.3-18.3c-1.5-2.3-2.9-5.2-4.4-8.5.7,2.7,1,4.9,1,6.8v20h-10.3v-41.3h12l9.6,15.1c1.9,3,3.4,5.7,4.4,7.9-.6-3.5-1-7.1-1-10.8v-12.2h10.3v41.3Z"/>
      <path class="st1" d="M936.8,712.7v23.2h-6.2c-.5-1.7-1.1-3.2-1.7-4.3-2.6,3.3-6.4,5-11.4,5s-9.7-1.9-13.1-5.6c-3.4-3.7-5.1-8.8-5.1-15.1s1.7-11.4,5-15.6c3.3-4.2,8.3-6.3,14.8-6.3s8.9,1.3,11.9,3.8,5,6.1,5.8,10.7l-12.3,1.2c-.6-4.3-2.5-6.4-5.7-6.4s-6.2,4-6.2,11.9.7,7.9,2,9.5,2.9,2.3,4.8,2.3,2.8-.5,3.9-1.4,1.6-2.2,1.7-3.8h-6.8v-8.8h18.6Z"/>
      <path class="st1" d="M976.9,736.5c-5.8,0-10.6-1.9-14.2-5.8s-5.5-9-5.5-15.5,1.8-11.3,5.3-15.3,8.4-6,14.6-6,10.4,1.9,14.1,5.7,5.4,8.9,5.4,15.2-1.8,11.8-5.5,15.8-8.4,5.9-14.1,5.9ZM976.8,727.1c2.1,0,3.7-.9,4.6-2.8s1.4-5.3,1.4-10.2c0-7.2-1.9-10.8-5.8-10.8s-6.2,4.1-6.2,12.3,2,11.5,6,11.5Z"/>
      <path class="st1" d="M1035.4,694.5v27.4c0,5.2-1.5,8.9-4.6,11.2-3.1,2.3-7.1,3.4-12,3.4s-9.4-1.1-12.6-3.3-4.7-5.7-4.7-10.7v-28h12.9v26.6c0,2,.4,3.4,1.3,4.3s2.2,1.4,4,1.4,2.8-.3,3.8-1,1.6-1.4,1.8-2.2c.2-.8.3-2.4.3-4.8v-24.2h10Z"/>
      <path class="st1" d="M1079,735.8h-14.1l-6-15.8h-4v15.8h-12.7v-41.3h21.6c4.8,0,8.5,1.1,11.1,3.3s4,5.2,4,8.8-.5,4.5-1.5,6.3-2.9,3.4-5.9,4.8l7.5,18ZM1054.9,711.2h5.4c1.6,0,2.9-.3,3.8-1s1.5-1.6,1.5-2.9c0-2.6-1.6-4-4.9-4h-5.8v7.9Z"/>
      <path class="st1" d="M1126.3,720.4h-13.5v15.5h-12.4v-41.3h29.9v9.8h-17.5v6.7h13.5v9.3Z"/>
      <path class="st1" d="M1167.9,694.5v27.4c0,5.2-1.5,8.9-4.6,11.2s-7.1,3.4-12,3.4-9.4-1.1-12.6-3.3-4.7-5.7-4.7-10.7v-28h12.9v26.6c0,2,.4,3.4,1.3,4.3s2.2,1.4,4,1.4,2.8-.3,3.8-1,1.6-1.4,1.8-2.2c.2-.8.3-2.4.3-4.8v-24.2h10Z"/>
      <path class="st1" d="M1191.7,704.4v31.4h-12v-31.4h-8.6v-9.9h29.2v9.9h-8.6Z"/>
      <path class="st1" d="M1237.4,694.5v27.4c0,5.2-1.5,8.9-4.6,11.2s-7.1,3.4-12,3.4-9.4-1.1-12.6-3.3c-3.2-2.2-4.7-5.7-4.7-10.7v-28h12.9v26.6c0,2,.4,3.4,1.3,4.3s2.2,1.4,4,1.4,2.8-.3,3.8-1,1.6-1.4,1.8-2.2c.2-.8.3-2.4.3-4.8v-24.2h10Z"/>
      <path class="st1" d="M1280.9,735.8h-14.1l-6-15.8h-4v15.8h-12.7v-41.3h21.6c4.8,0,8.5,1.1,11.1,3.3,2.6,2.2,4,5.2,4,8.8s-.5,4.5-1.5,6.3-2.9,3.4-5.9,4.8l7.5,18ZM1256.8,711.2h5.4c1.6,0,2.9-.3,3.8-1s1.5-1.6,1.5-2.9c0-2.6-1.6-4-4.9-4h-5.8v7.9Z"/>
      <path class="st1" d="M1318,726v9.9h-31.1v-41.3h31.1v9.5h-18.7v6h15.1v9.2h-15.1v6.8h18.7Z"/>
    </g>
  </g>
  <g id="Layer_1">
    <path class="st0" d="M257.6,452.9c-8.9,1.5-15.9,3.6-22,10.9s-8.1,15.6-9.7,25.4v195s-69,0-69,0v-193.7c-.5-9-3-17.3-7.4-24.4-5.9-9.4-15-11.6-24.9-13.4-16.2-2.9-30.5-9.2-45.1-16.7-32.1-16.4-57.2-43.4-69.7-77.3-1.3-3.6-2.6-7.7-3.1-11.1-4.4-27.9,7.4-66.9,16.7-93.7,4.8-13.8,9.8-27.1,12.4-41.6l1.2-6.3,2.2-14.5c1.2-8.2.4-16.4.4-24.9s-3-8.5-6.6-9.5c-9.8,5.1-13.7,15.4-21.5,23.9l.5-62.8c0-11.2,1.7-22.6,1.2-33.8s.7-2.2,1.1-2.8,2,.8,2.5,1.4c14.3,14.2,23.6,31.3,32,49.5,7.5,16.5,13.1,33.4,12.4,51.7-.4,11.6.4,22.9-.7,34.4-3.2,33.8-12.1,48.2-15.4,69.4l-2.1,13.3-1.9,12.8c-2.2,15.1,1.3,36.1,9.6,48.8s10.7,15.1,18.1,20.6c21.8,16.2,57.8,32.5,84.6,24.4,9.8-2.9,15-13.9,17.2-23.2,1-4.1,1.3-8.8,1.4-13.1l.6-36.7.5-132.6v-84.6c.1-1.7-1.3-4.1-1.9-5s-3.9-1.7-5-1.1c-8.1,5.1-15.1,9.5-24.4,13.6,7.6-21.9,16.3-41.1,25.8-61.2,7.8-16.4,15-32.1,24-48.5,15.4,30,29.4,58.9,42.1,89.3s4.9,12.5,7.6,20.5c-7.4-2.1-24.2-15.1-27.3-13.9s-4.1,3.9-4.1,5.8v69.6c.1,0,.8,105,.8,105l.6,79.5c0,12.4,2.8,24.3,12.1,33,2.6,2.4,7.7,4.7,11.3,5.1,26.8,2.9,50-6.9,72.4-20.7s39.5-45.8,35.2-74.7l-2-13.6-2.1-12.4c-2.8-16.5-10-30.4-13.1-52.7l-1.4-10.3c-2.5-18.2-2.8-41.7,0-59.8,1.7-10.4,4.6-20.3,9.2-29.8,8.8-18.4,20.2-41.3,35.8-54.4.7,1.7,1.2,3.2,1.2,4.1l.8,31.2.4,42.6c0,7.5,1.4,14.2.4,21.6l-7.5-9.9c-3.7-4.9-8-10.7-13.4-13.7-4.8,1-7,7.2-6.9,11.6.3,8.1-.5,16.1.6,23.9l1.9,13.7c1.7,11.8,4.8,22.3,8.9,33.5,10.1,28.4,26.1,76,21.6,105.6-2.1,13.7-8.1,26.8-15.4,38.6s-20,25.6-32.6,36.2-18.9,12.7-29.4,18.1c-13,6.8-27.1,12.3-41.7,14.7Z"/>
  </g>
</svg>